/* XPM */
static char *c8319f0762064d06b47abd5593888d47[] = {
/* columns rows colors chars-per-pixel */
"64 64 112 2 ",
"   c #6D3F1B",
".  c #6F411B",
"X  c #6F421B",
"o  c #6E401C",
"O  c #6F411C",
"+  c #73411A",
"@  c #70421A",
"#  c #71421A",
"$  c #70431A",
"%  c #70421B",
"&  c #70421C",
"*  c #71421C",
"=  c #71431C",
"-  c #72431C",
";  c #72431D",
":  c #73431D",
">  c #73441D",
",  c #75451D",
"<  c #76451E",
"1  c #77461E",
"2  c #78471E",
"3  c #79471E",
"4  c #7A481E",
"5  c #7B491F",
"6  c #1FAF4C",
"7  c #1FAF4D",
"8  c #1FB24A",
"9  c #1FB34B",
"0  c #1FB04C",
"q  c #1FB14C",
"w  c #1FB04D",
"e  c #1FB14D",
"r  c #1FB24E",
"t  c #1FB44C",
"y  c #21AF4D",
"u  c #21B049",
"i  c #20B14B",
"p  c #21B24A",
"a  c #21B34A",
"s  c #21B24B",
"d  c #22B24A",
"f  c #22B34A",
"g  c #22B24B",
"h  c #22B34B",
"j  c #21B54B",
"k  c #22B44B",
"l  c #22B54B",
"z  c #21B04C",
"x  c #21B14C",
"c  c #20B14D",
"v  c #22B04C",
"b  c #22B14C",
"n  c #22B14D",
"m  c #20B24C",
"M  c #21B24C",
"N  c #20B34C",
"B  c #20B34D",
"V  c #21B34D",
"C  c #22B24C",
"Z  c #22B24D",
"A  c #22B34D",
"S  c #20B24E",
"D  c #22B54C",
"F  c #22B44D",
"G  c #22B54D",
"H  c #23B54D",
"J  c #20B74D",
"K  c #21B74D",
"L  c #23B64C",
"P  c #21B54E",
"I  c #20B54F",
"U  c #22B44E",
"Y  c #22B54E",
"T  c #23B54E",
"R  c #23B54F",
"E  c #22B64E",
"W  c #23B64E",
"Q  c #22B74E",
"!  c #23B64F",
"~  c #23B74F",
"^  c #23B84C",
"/  c #22B84D",
"(  c #22B94D",
")  c #20B84F",
"_  c #21B84F",
"`  c #23B84F",
"'  c #23B94F",
"]  c #23B950",
"[  c #20BA50",
"{  c #23BA50",
"}  c #23BB50",
"|  c #23BB51",
" . c #24BA50",
".. c #24BB50",
"X. c #24BB51",
"o. c #22BC51",
"O. c #24BC51",
"+. c #24BD51",
"@. c #24BD52",
"#. c #24BE52",
"$. c #24BF52",
"%. c #25BE53",
"&. c #24C052",
"*. c #25C052",
"=. c #24C053",
"-. c #25C053",
";. c #25C153",
":. c #25C253",
">. c #25C254",
",. c #25C354",
"<. c #25C454",
"1. c None",
/* pixels */
"1.1.1.1.1.1.1.1.1.1.1.1.1.1.1.1.1.1.1.1.1.1.1.1.1.1.1.1.1.1.1.1.1.1.1.1.1.1.1.1.1.1.1.1.1.1.1.1.1.1.1.1.1.1.1.1.1.1.1.1.1.1.1.1.",
"1.1.1.1.1.1.1.1.1.1.1.1.1.1.1.1.1.1.1.1.1.1.1.1.1.1.1.1.1.1.1.1.1.=.1.1.1.1.1.1.1.1.1.1.1.1.1.1.1.1.1.1.1.1.1.1.1.1.1.1.1.1.1.1.",
"1.1.1.1.1.1.1.1.1.1.1.1.1.1.1.1.1.1.1.1.1.1.1.1.1.1.1.1.1.1.1.1.1.A ..1.1.1.1.1.1.1.1.1.1.1.1.1.1.1.1.1.1.1.1.1.1.1.1.1.1.1.1.1.",
"1.1.1.1.1.1.1.1.1.1.1.1.1.1.1.1.1.1.1.1.1.1.1.1.1.1.1.1.1.1.1.1.1.1.A ~ 1.1.1.1.1.1.1.1.1.1.1.1.1.1.1.1.1.1.1.1.1.1.1.1.1.1.1.1.",
"1.1.1.1.1.1.1.1.1.1.1.1.1.1.1.1.1.1.1.1.1.1.1.1.1.1.1.1.1.1.1.1.1.A A A 1.1.1.1.1.1.1.1.1.1.1.1.1.1.1.1.1.h 1.1.1.1.1.1.1.1.1.1.",
"1.1.1.1.1.1.1.1.1.1.1.1.1.1.1.=.h 1.1.1.1.1.1.1.1.1.1.1.1.1.1.A ..A A A A 1.1.1.1.1.1.1.1.1.1.1.1.1.1.1.1.W 1.1.1.1.1.1.1.1.1.1.",
"1.1.1.1.1.1.1.1.1.1.1.1.1.1.1.1.=.A ~ 1.1.1.1.1.1.1.1.1.1.1.1.1.A A A A [ 1.1.1.1.1.1.1.1.1.1.1.1.1.1.1.1.A 1.1.1.1.1.1.1.1.1.1.",
"1.1.1.1.1.1.1.1.1.1.1.1.1.1.1.1.1.A h W _ 1.1.1.1.1.1.1.1.1.1.1.A A A A W 1.1.1.1.1.1.1.1.1.1.1.1.1.1.1.1.A A 1.1.1.1.1.1.1.1.1.",
"1.1.1.1.1.1.1.1.1.1.1.1.1.1.1.1.1.[ A A A ~ 1.1.1.1.1.1.1.1.1.1.1.A A A A 1.1.1.1.1.1.1.1.1.1.1.1.A 1.1.A A ..1.1.1.1.1.1.1.1.1.",
"1.1.1.1.1.1.1.1.1.1.1.1.1.1.1.1.O.A A A A A 1.1.1.1.1.1.1.1.1.1.1.A A A A 1.1.1.1.1.1.1.1.1.1.1.1.A A A A ~ O.1.1.1.1.1.1.1.1.1.",
"1.1.1.1.1.1.1.1.1.1.1.1.1.1.1.1.1.~ A A A A A 1.1.1.1.1.1.1.1.1.A A A A A 1.1.1.1.1.1.1.1.1.1.1.1.A A A A A A 1.1.1.1.1.1.1.1.1.",
"1.1.1.1.1.1.1.1.1.1.1.1.1.1.1.1.1.1.t A A A A =.1.1.1.1.1.1.1.1.A A A A A 1.1.1.1.1.1.1.1.1.1.1.1.A A A A A 1.1.1.1.1.1.1.1.1.1.",
"1.1.1.1.1.1.1.1.1.1.1.1.1.1.1.1.1.1.1.A A A A A 1.1.1.1.1.1.1.1.e A A A A 1.1.1.1.1.1.1.1.1.1.1.1.A A A A A 1.1.1.1.1.1.1.1.1.1.",
"1.1.1.1.1.1.1.1.1.1.1.1.1.1.1.1.1.1.1.A A A A A =.1.1.1.1.1.1.1.h A A A O.1.1.1.1.1.1.1.1.1.=.A A A A A A ~ 1.1.1.1.1.1.1.1.1.1.",
"1.1.1.1.1.1.1.1.1.1.1.1.1.1.1.1.1.1.1.1.A A A A A 1.1.1.1.1.1.1.A A A A e 1.1.1.1.1.1.1.1.1.[ A A A A A A 1.1.1.1.1.1.1.1.1.1.1.",
"1.1.1.1.1.1.1.1.1.1.1.1.1.1.1.1.1.1.1.1.1.A A A A A 1.1.1.1.1.A A A A A 1.1.1.1.1.1.1.1.1.1.A A A A A A W 1.1.1.1.1.1.1.1.1.1.1.",
"1.1.1.1.1.1.1.1.1.1.1.1.1.1.1.1.1.1.1.1.1.=.A A A ` 1.1.1.1.1.A A A A ~ 1.1.1.1.1.1.1.1.1.~ A A A A A A 1.1.1.1.1.1.1.1.1.1.1.1.",
"1.1.t A A A A A ~ ~ 1.1.1.1.1.1.1.1.1.1.1.=.A A A A 1.1.1.1.1.1.A A A _ 1.1.1.1.1.1.O...~ A A A A A A ~ 1.1.1.1.1.1.1.1.1.1.1.1.",
"1.1.1.h A A A A A A A >.1.1.1.1.1.1.1.1.~ A A A A A 1.1.1.1.1.1.A A A A 1.1.1.1.1.1._ A A A A A A ~ =.1.1.1.1.1.1.1.1.1.1.1.1.1.",
"1.1.1.1.1.A A A A A A A A _ 1.1.1.1.1.1.1.1.~ A A A =.1.1.1.1.1.A A A 1.1.1.1.1.1.1.A A A A A A A O.1.1.1.1.1.1.1.1.1.1.1.1.1.1.",
"1.1.1.1.1.A A A A A A A A A ~ 1.1.1.1.1.1.1.1.O.A A A 1.1.1.1.1.A A ..1.1.1.1.1.1.1.A A A A A A [ 1.1.1.1.1.1.1.1.1.1.1.1.1.1.1.",
"1.1.1.1.o.A 1.1.A A A A A A A A 1.1.1.1.1.1.1.1.=.A A 1.1.A A A A A 1.1.1.1.1.1.1.1.A A A A A =.1.1.1.1.1.1.1.1.1.1.1.1.1.1.1.1.",
"1.1.1.1.1.1.1.1.1.A A A A A A A ~ t 1.1.1.1.1.1.A A A 1.1.=.A A A A 1.1.1.>.A 1.1.O.A A A A O.1.1.1.1.1.1.1.1.1.1.1.1.1.1.1.1.1.",
"1.1.1.1.1.1.1.1.1.1.1.1.A A A A A A O.1.1.1.1.~ A A A A 1.W A A A A 1.1.A A A A ~ A A A A ~ 1.1.1.1.1.1.1.1.1.1.1.1.1.1.1.1.1.1.",
"1.1.1.1.1.1.1.1.1.1.1.1.1.A A A A A A >.1.1.1.A A A A =.1.A A A A 1.1.1.A A A A A A A A 1.1.1.1.1.1.1.1.1.1.1.1.1.1.1.1.1.1.1.1.",
"1.1.1.1.1.1.1.1.1.1.1.1.1...A A A A A ~ >.1.1.A A A A W 1.A A A =.1.1.A A A A A A A >.1.1.1.1.1.1.1.1.1.1.1.1.1.1.1.1.1.1.1.1.1.",
"1.1.1.1.1.1.1.1.1.1.1.1.1.1.1.1.1.1.A A A >.1.1.A A A A 1.A A A 1.1.~ A A A A A A 1.1.1.1.1.1.1.1.1.1.1.1.1.1.1.1.1.1.1.1.1.1.1.",
"1.1.1.1.1.1.1.1.1.1.1.1.1.1.1.1.1.1.1.A A A [ 1.b A A A 1.A A =.1.1.A A A A A >.1.1.1.1.1.1.1.1.1.A O.W A A A A W O.1.1.1.1.1.1.",
"1.1.1.1.1.1.1.1.1.1.1.1.1.1.1.1.1.1.=.A A A A A 1.A A A 1.=.A 1.1.=.A A A A 1.1.1.1.1.1.1.~ A A A A A A A A A A A A A A 1.1.1.1.",
"1.1.1.1.1.1.1.1.1.1.1.1.1.1.1.1.1.1.~ A A A A A 1.1.A W 1.1.<.1.1.~ A ~ _ 1.1.1.1.1...A A A A A A A A A A A A A A A A A A <.1.1.",
"1.1.1.1.1.1.1.1.1.1.1.1.1.1.1.1.1.1.1.1.A A A A A 1.1.O.b 1.1.1.1.O.>.1.1.1.1._ ~ A A A A A A A A A A A A A A A A A A A A A <.1.",
"1.1.1.1.1.1.1.l ~ A A A A A ~ =.A 1.1.1.1._ A A A A 1.1.1.1.1.1.1.1.1.1.1.` A A A A A A A A A A A A A A A A A A A A A A ..A A A ",
"1.1.1.1.1.~ A A A A A A A A A A A A A ~ l 1.1.~ o.~ 1.1.1.4 & > 1.1.1.=.A A A A A A A l 1.1.~ A A A 1.1.~ A o.1.1.A ~ O.1.1.1.~ ",
"1.1.1.1.A A A A A A A A A A A A A A A A A A A O.1.1.1.1.4 & & 2 1.1.A A A A A A A A A 1.1.1.1.W A 1.1.1.1.1.1.1.1.1.>.A 1.1.1.1.",
"1.1.1.~ A A A A W A A W =.A A A 1.1.A A A A A A ~ 1.1.% & & & 1.1.1.1.~ A A A A A A A 1.1.1.1.1.1.1.1.1.1.1.1.1.1.1.1.1.1.1.1.1.",
"1.1.=.1.1.O.A ~ 1.A 1.1.1.A >.1.1.1...A A A A _ 1.1.> & & &   1.1.1.1.1.1.1.1.1.1.1.1.1.1.1.1.1.1.1.1.1.1.1.1.1.1.1.1.1.1.1.1.1.",
"1.1.1.1.1.1.1.1.1.1.1.1.1.1.1.1.1.1.1.1.1.1.1.1.1.% & & & < 1.1.h A A _ ~ 1.1.1.1.1.1.1.1.1.1.1.1.1.1.1.1.1.1.1.1.1.1.1.1.1.1.1.",
"1.1.1.1.1.1.1.1.1.1.1.1.1.1.1.1.1.1.1.1.1.1.1.1.% % & & & 1.1.1.1.A A A A A A =.1.1.1.1.1.1.1.1.1.1.1.1.1.1.1.1.1.1.1.1.1.1.1.1.",
"1.1.1.1.1.1.1.1.1.1.1.1.1.1.1.1.1.1.1.1.1.1.1.& & & & & 1.1.1.A 1.O.~ A A A A A A A =.1.1.1.1.1.1.1.1.1.1.1.1.1.1.1.1.1.1.1.1.1.",
"1.1.1.1.1.1.1.1.1.1.1.1.1.1.1.1.1.1.1.1.1.1.< & & & & 4 1.1.A A A 1.O.A A A A A A A A h ~ W 1.1.1.1.1.1.1.1.1.1.1.1.1.1.1.1.1.1.",
"1.1.1.1.1.1.1.1.1.1.1.1.1.1.1.1.1.1.1.1.1.4 & & & & & 1.1._ 1.A A ~ 1.~ A A A A A A A A A A A =.1.1.1.1.1.1.1.1.1.1.1.1.1.1.1.1.",
"1.1.1.1.1.1.1.1.1.1.1.1.1.1.1.1.1.1.1.1.> & & & & & 1.1.h ~ 1.A A A o.1.1.~ A O.1.1.A A A A A A A >.1.1.1.1.1.1.1.1.1.1.1.1.1.1.",
"1.1.1.1.1.1.1.1.1.1.1.1.1.1.1.1.1.1.1.& & & & & & 4 1.1.W A 1.A A A ~ O.1.1.O.1.1.1.1.A A A A A A A A A 1.1.1.1.1.1.1.1.1.1.1.1.",
"1.1.1.1.1.1.1.1.1.1.1.1.1.1.1.1.1.1.& & & & & & & 1.1.1.A A y A A A A A A 1.1.1.1.1.1.A A A A A A A A ~ O.1.1.1.1.1.1.1.1.1.1.1.",
"1.1.1.1.1.1.1.1.1.1.1.1.1.1.1.1.1.& & & & & & & % 1.1.1.A A _ 1.A A A A A 1.1.1.1.1.1.A A A A A A A A A A A 1.1.1.1.1.1.1.1.1.1.",
"1.1.1.1.1.1.1.1.1.1.1.1.1.1.1.1.& & & & & & & & 1.1.1.1.A A ~ 1.=.A ~ A A A 1.1.1.1.1.1.~ 1.1.A A A A A A A A 1.1.1.1.1.1.1.1.1.",
"1.1.1.1.1.1.1.1.1.1.1.1.1.1.1.& & & & & & & & 1.1.1.1.1.A A A 1.1.1.1.l A A >.1.1.1.1.1.1.1.1.1.A A A A A A A [ 1.1.1.1.1.1.1.1.",
"1.1.1.1.1.1.1.1.1.1.1.1.1.1.& & & & & & & & & 1.1.1.1.1.h A A 1.1.1.1.1.A A A 1.1.1.1.1.1.1.1.1.O.A ~ A A A A A h 1.1.1.1.1.1.1.",
"1.1.1.1.1.1.1.1.1.1.1.1.1.& & & & & & & & & 1.1.1.1.1.1.1.1.A A 1.1.1.1.A A A A 1.1.1.1.1.1.1.1.1.1.1.~ A A A A A 1.1.1.1.1.1.1.",
"1.1.1.1.1.1.1.1.1.1.1.1.+ & & & & & & & & & 1.1.1.1.1.1.1.~ A O.1.1.1.h A A A A O.1.1.1.1.1.1.1.1.1.1.h A A A A A 1.1.1.1.1.1.1.",
"1.1.1.1.1.1.1.1.1.1.1.1.& & & & & & & & & % 1.1.1.1.1.1.1.A A ~ 1.1.1.W A A A A ~ 1.1.1.1.1.1.1.1.1.1.1.A A ..A A 1.1.1.1.1.1.1.",
"1.1.1.1.1.1.1.1.1.1.1.2 & & & & & & & & & 1.1.1.1.1.1.1.~ A A A 1.1.1.1.1.A A A A >.1.1.1.1.1.1.1.1.1.1.~ 1.1.1.A A 1.1.1.1.1.1.",
"1.1.1.1.1.1.1.1.1.1.1.& & & & & & & & & 2 1.1.1.1.1.1.1.O.~ A A 1.1.1.1.1.A A A A A 1.1.1.1.1.1.1.1.1.1.1.1.1.1.O.1.1.1.1.1.1.1.",
"1.1.1.1.1.1.1.1.1.1.& & & & & & & & & & 1.1.1.1.1.1.1.1.1.A A A 1.1.1.1.1.1.A A A A 6 1.1.1.1.1.1.1.1.1.1.1.1.1.1.1.1.1.1.1.1.1.",
"1.1.1.1.1.1.1.1.1.1.& & & & & & & & & & 1.1.1.1.1.1.1.1.1.A A A 1.1.1.1.1.A A A A A ~ 1.1.1.1.1.1.1.1.1.1.1.1.1.1.1.1.1.1.1.1.1.",
"1.1.1.1.1.1.1.1.1.1.& & & & & & & & & & 1.1.1.1.1.1.1.1.~ A A A 1.1.1.1.1.O.[ A A A A 1.1.1.1.1.1.1.1.1.1.1.1.1.1.1.1.1.1.1.1.1.",
"1.1.1.1.1.1.1.1.1.1.& & & & & & & & & % 1.1.1.1.1.1.1.1.~ A A A 1.1.1.1.1.1.1.A A A A 1.1.1.1.1.1.1.1.1.1.1.1.1.1.1.1.1.1.1.1.1.",
"1.1.1.1.1.1.1.1.1.2 & & & & & & & & & < 1.1.1.1.1.1.1.1.1.A A A 1.1.1.1.1.1.1.A A A A 1.1.1.1.1.1.1.1.1.1.1.1.1.1.1.1.1.1.1.1.1.",
"1.1.1.1.1.1.1.1.1.& & & & & & & & & & & 1.1.1.1.1.1.1.1.=.A A ` 1.1.1.1.1.1.1.A A A ~ 1.1.1.1.1.1.1.1.1.1.1.1.1.1.1.1.1.1.1.1.1.",
"1.1.1.1.1.1.1.1.1.& & & & & & & & & & & 1.1.1.1.1.1.1.h A A A h 1.1.1.1.1.1.A ~ A A A 1.1.1.1.1.1.1.1.1.1.1.1.1.1.1.1.1.1.1.1.1.",
"1.1.1.1.1.1.1.1.1.& & & & & & & & & & & 1.1.1.1.1.1.1.~ A A A 1.1.1.1.1.1.1.1.1.1.A A 1.1.1.1.1.1.1.1.1.1.1.1.1.1.1.1.1.1.1.1.1.",
"1.1.1.1.1.1.1.1.1.& & & & & & & & & & & 1.1.1.1.1.1.1.1.u A >.1.1.1.1.1.1.1.1.1.1._ >.1.1.1.1.1.1.1.1.1.1.1.1.1.1.1.1.1.1.1.1.1.",
"1.1.1.1.1.1.1.1.% & & & & & & & & & & & < 1.1.1.1.1.1.1.W A 1.1.1.1.1.1.1.1.1.1.1.~ 1.1.1.1.1.1.1.1.1.1.1.1.1.1.1.1.1.1.1.1.1.1.",
"1.1.1.1.1.1.1.1.1.1.O 4 & & & & & & & 2 1.1.1.1.1.1.1.1.[ 1.1.1.1.1.1.1.1.1.1.1.1.1.1.1.1.1.1.1.1.1.1.1.1.1.1.1.1.1.1.1.1.1.1.1."
};
