/* XPM */
static char *_d9d295316ab4881c1c00aec2e533fa7[] = {
/* columns rows colors chars-per-pixel */
"16 16 60 1 ",
"  c #713F1A",
". c #70421C",
"X c #71421C",
"o c #72431C",
"O c #73441D",
"+ c #79471E",
"@ c #7A481E",
"# c #7C491F",
"$ c #7E4A20",
"% c #20B34B",
"& c #21B14C",
"* c #20B14D",
"= c #20B34C",
"- c #21B34D",
"; c #22B24D",
": c #20B44C",
"> c #20B44D",
", c #22B44C",
"< c #22B54C",
"1 c #22B44D",
"2 c #22B54D",
"3 c #21B54E",
"4 c #20B54F",
"5 c #22B54E",
"6 c #21B64F",
"7 c #20B74F",
"8 c #22B64E",
"9 c #23B64E",
"0 c #22B74E",
"q c #22B74F",
"w c #21B84F",
"e c #23B84F",
"r c #22BA4F",
"t c #24BC4F",
"y c #22B850",
"u c #23B950",
"i c #22BA50",
"p c #23BA50",
"a c #23BB50",
"s c #22BB51",
"d c #23BB51",
"f c #23BC50",
"g c #22BC51",
"h c #23BE53",
"j c #24BD50",
"k c #24BD51",
"l c #24BF52",
"z c #25C053",
"x c #25C153",
"c c #25C253",
"v c #25C154",
"b c #25C354",
"n c #25C454",
"m c #25C555",
"M c #26C856",
"N c #26CA57",
"B c #27CC58",
"V c #27CD58",
"C c #29D65C",
"Z c None",
/* pixels */
"ZZZZZZZZZZZZZZZZ",
"ZZZZZZZZZZZZZZZZ",
"ZZZZZwZZZ*ZZZaZZ",
"ZZZZZlZZ3,ZZdnZZ",
"ZZZZZZdZzZZZ3ZZZ",
"ZZ*nZZhZlZZlwZZZ",
"ZZZZVZzZ*3BZZZZZ",
"ZZZZZCZ3ZlZZ2laZ",
"ZZzNa3vZZtNZl3ZZ",
"ZZZZZZZ#Z3ZZZZZZ",
"ZZZZZZ#Zhe,zZZZZ",
"ZZZZZOX**2Z3aeZZ",
"ZZZZX@ZZZ*ZZZa*Z",
"ZZZ@XXZ3ZZnZZZwZ",
"ZZZOXZZ,ZZzZZZZZ",
"ZZZXXZZdZZlZZZZZ"
};
