/* XPM */
static char *d244332db10e4607e9dbfd37fc61a184[] = {
/* columns rows colors chars-per-pixel */
"32 32 122 2 ",
"   c #713F1A",
".  c #753C19",
"X  c #70411B",
"o  c #73411B",
"O  c #70421B",
"+  c #71421B",
"@  c #71431B",
"#  c #77421B",
"$  c #70411C",
"%  c #70421C",
"&  c #71421C",
"*  c #71431C",
"=  c #72431C",
"-  c #77411C",
";  c #74431C",
":  c #73441D",
">  c #74441D",
",  c #74451D",
"<  c #75451D",
"1  c #77461E",
"2  c #7A431C",
"3  c #79441D",
"4  c #79461D",
"5  c #78471E",
"6  c #79471E",
"7  c #7A481E",
"8  c #7A481F",
"9  c #7B491F",
"0  c #7C491F",
"q  c #7E4A20",
"w  c #824E21",
"e  c #1FB84F",
"r  c #1ABF53",
"t  c #21B14C",
"y  c #21B24C",
"u  c #21B34C",
"i  c #21B24D",
"p  c #21B34D",
"a  c #22B34C",
"s  c #22B24D",
"d  c #22B34D",
"f  c #21B44C",
"g  c #21B44D",
"h  c #21B54D",
"j  c #22B44C",
"k  c #22B44D",
"l  c #22B54D",
"z  c #23B54D",
"x  c #22B64D",
"c  c #21B44E",
"v  c #21B54E",
"b  c #21B54F",
"n  c #22B44E",
"m  c #23B44E",
"M  c #22B54E",
"N  c #21B64E",
"B  c #21B74F",
"V  c #22B64E",
"C  c #23B64E",
"Z  c #22B74E",
"A  c #23B74E",
"S  c #22B64F",
"D  c #22B74F",
"F  c #23B74F",
"G  c #22B84E",
"H  c #22B84F",
"J  c #23B84F",
"K  c #22B94F",
"L  c #23B94F",
"P  c #23BA4E",
"I  c #22BA4F",
"U  c #23B850",
"Y  c #23B950",
"T  c #22BA50",
"R  c #23BA50",
"E  c #23BB50",
"W  c #23BB51",
"Q  c #24BB50",
"!  c #23BC50",
"~  c #23BC51",
"^  c #23BD51",
"/  c #24BC50",
"(  c #24BC51",
")  c #24BD51",
"_  c #24BE52",
"`  c #24BF52",
"'  c #24BF53",
"]  c #17C253",
"[  c #25C052",
"{  c #24C152",
"}  c #25C053",
"|  c #25C153",
" . c #24C253",
".. c #25C253",
"X. c #25C254",
"o. c #25C354",
"O. c #25C454",
"+. c #25C554",
"@. c #25C455",
"#. c #25C555",
"$. c #26C555",
"%. c #25C655",
"&. c #26C655",
"*. c #25C756",
"=. c #26C756",
"-. c #26C856",
";. c #26C956",
":. c #26C957",
">. c #26CA56",
",. c #26CA57",
"<. c #27CA57",
"1. c #26CB57",
"2. c #27CB57",
"3. c #27CC58",
"4. c #27CD58",
"5. c #27CE59",
"6. c #28D059",
"7. c #28D25A",
"8. c #28D35B",
"9. c #29D65C",
"0. c #29D75C",
"q. c None",
/* pixels */
"q.q.q.q.q.q.q.q.q.q.q.q.q.q.q.q.q.q.q.q.q.q.q.q.q.q.q.q.q.q.q.q.",
"q.q.q.q.q.q.q.q.q.q.q.q.q.q.q.q.q.C q.q.q.q.q.q.q.q.q.q.q.q.q.q.",
"q.q.q.q.q.q.q.q.q.q.q.q.q.q.q.q.q.! q.q.q.q.q.q.q.q.q.q.q.q.q.q.",
"q.q.q.q.q.q.q.q.C  .q.q.q.q.q.q.C 1.C q.q.q.q.q.q.q.q.q.q.q.q.q.",
"q.q.q.q.q.q.q.q.q.7.R q.q.q.q.q.q.-.p q.q.q.q.q.q.R R C q.q.q.q.",
"q.q.q.q.q.q.q.q.q.R O.p q.q.q.q.C O.C q.q.q.q.q.q.3.-.C q.q.q.q.",
"q.q.q.q.q.q.q.q.q.q.' O.q.q.q.q.p 3.C q.q.q.q.q.R _ o.q.q.q.q.q.",
"q.q.q.q.q.q.q.q.q.q.R o.p q.q.q.G -.C q.q.q.q.C O.R C q.q.q.q.q.",
"q.q.q.q.q.q.q.q.q.q.q.R ! q.q.q. ._ q.q.q.q.q.C R O.q.q.q.q.q.q.",
"q.q.G 3._ R q.q.q.q.q._ -.q.q.q.p C q.q.q.C -.F O.C q.q.q.q.q.q.",
"q.q.q. .p O.O.R q.q.q.q.! c q.q.R y q.q.q.p _ O.D q.q.q.q.q.q.q.",
"q.q.q.q.q.R C O.R q.q.q.C C q._ O.q.q._ q.C O.R q.q.q.q.q.q.q.q.",
"q.q.q.q.q.q.q.-.3.! q.q. .p q.! C q.C O.1.Q q.q.q.q.q.q.q.q.q.q.",
"q.q.q.q.q.q.q.q.q.!  .q.p Q C  .q.C 1.o.Q q.q.q.q.q.q.q.q.q.q.q.",
"q.q.q.q.q.q.q.q.q.C 9.C q._ C C q.O.R q.q.q.q.D C C _ _ R R q.q.",
"q.q.q.q.q.q.q.q.q.q.C o.R p q.q.q.! q.q.F D 7.-.Q  .' Q o.o.O.C ",
"q.q.q.R o.O.-.! R C C R o.q.q.2 q.q._ o.1.p q.C ! D C C q.R q.q.",
"q.q.R o.p p C C q.p 9. .] q.2 @ q.q.! C ! C q.q.q.q.q.q.q.q.q.q.",
"q.q.q.q.q.q.q.q.q.q.q.q.q.; q q.q.o.C q.q.q.q.q.q.q.q.q.q.q.q.q.",
"q.q.q.q.q.q.q.q.q.q.q.q.2 w q.q.C R -.R C R q.q.q.q.q.q.q.q.q.q.",
"q.q.q.q.q.q.q.q.q.q.q.< q . q.C R q.G O.p _  .Q q.q.q.q.q.q.q.q.",
"q.q.q.q.q.q.q.q.q.q.< < ; q.r C C _ q.q.q.q.O.o.o.! q.q.q.q.q.q.",
"q.q.q.q.q.q.q.q.q.7 : 7   q.p p p 7.G q.q.q.C C R _ R q.q.q.q.q.",
"q.q.q.q.q.q.q.q.q & < & q.q.p C q.q._ p q.q.q.q.C o.R R q.q.q.q.",
"q.q.q.q.q.q.q.< : O 7 q.q.q.q.p q.q.p O.q.q.q.q.q.q.R 3.C q.q.q.",
"q.q.q.q.q.q.& 5 $ : @ q.q.q.q. .q.q.m  .p q.q.q.q.q.C ! C q.q.q.",
"q.q.q.q.q.q.5 & $ 5 & q.q.q.C 1.q.q.q.C O.q.q.q.q.q.q.q.C q.q.q.",
"q.q.q.q.q.& < & & 5 q.q.q.q.q.3.q.q.q.p o.C q.q.q.q.q.q.q.q.q.q.",
"q.q.q.q.q.& : & & < q.q.q.q.p 5.q.q.q.q. .m q.q.q.q.q.q.q.q.q.q.",
"q.q.q.q.q.< $ $ & < q.q.q.q.C  .q.q.q.q.5.p q.q.q.q.q.q.q.q.q.q.",
"q.q.q.q.q.7 * $ $ 5 q.q.q.q.R p q.q.q.q._ p q.q.q.q.q.q.q.q.q.q.",
"q.q.q.q.q.5 $ * @ 5 @ q.q.q.C q.q.q.q.q.q.q.q.q.q.q.q.q.q.q.q.q."
};
